# xmcd
#
# Track frame offsets:
#	150
#	19650
#	36194
#	50641
#	72556
#	94662
#	115951
#	134414
#	149782
#	174137
#	195448
#
# Disc length: 2926 seconds
#
# Revision: 1
# Processed by: cddbd v1.4PL0 Copyright (c) Steve Scherf et al.
# Submitted via: audiograbber 1.82.02
#
DISCID=9f0b6c0b
DTITLE=Storehouse - Together
DYEAR=1900
DGENRE=
TTITLE0=Welcome
TTITLE1=Together as Family
TTITLE2=Let Everything that has Breath
TTITLE3=In this Place of Worship
TTITLE4=I Worship You Lord
TTITLE5=I Will Remember
TTITLE6=Storehouse
TTITLE7=Yes He Loves You So
TTITLE8=Soul Searching
TTITLE9=In One Accord
TTITLE10=Love For Kids
EXTD=
EXTT0=
EXTT1=
EXTT2=
EXTT3=
EXTT4=
EXTT5=
EXTT6=
EXTT7=
EXTT8=
EXTT9=
EXTT10=
PLAYORDER=
